<svg width="17" height="16" viewBox="0 0 17 16" fill="none" xmlns="http://www.w3.org/2000/svg">
<path d="M1.87468 8.23224C1.81912 8.08256 1.81912 7.91792 1.87468 7.76824C2.41581 6.45614 3.33435 5.33427 4.51386 4.54484C5.69336 3.75541 7.08071 3.33398 8.50001 3.33398C9.91932 3.33398 11.3067 3.75541 12.4862 4.54484C13.6657 5.33427 14.5842 6.45614 15.1253 7.76824C15.1809 7.91792 15.1809 8.08256 15.1253 8.23224C14.5842 9.54434 13.6657 10.6662 12.4862 11.4556C11.3067 12.2451 9.91932 12.6665 8.50001 12.6665C7.08071 12.6665 5.69336 12.2451 4.51386 11.4556C3.33435 10.6662 2.41581 9.54434 1.87468 8.23224Z" stroke="white" stroke-width="1.25" stroke-linecap="round" stroke-linejoin="round"/>
<path d="M8.5 10C9.60457 10 10.5 9.10457 10.5 8C10.5 6.89543 9.60457 6 8.5 6C7.39543 6 6.5 6.89543 6.5 8C6.5 9.10457 7.39543 10 8.5 10Z" stroke="white" stroke-width="1.25" stroke-linecap="round" stroke-linejoin="round"/>
</svg>
